<?xml version="1.0" encoding="utf-8"?>
<svg width="0px" height="0px" version="1.1"
  style="fill-rule:evenodd;clip-rule:evenodd;stroke-linecap:round;stroke-linejoin:round;"
  viewBox="-26 -26 100 100" xmlns="http://www.w3.org/2000/svg">
  <path
    d="M 47.746 11.42 C 47.602 10.638 47.132 9.954 46.454 9.538 L 39.069 16.919 C 37.653 18.387 35.316 18.43 33.847 17.016 C 33.815 16.984 33.783 16.952 33.752 16.919 L 30.945 14.41 C 29.538 12.975 29.538 10.678 30.945 9.242 L 38.33 1.861 C 38.004 1.095 37.355 0.514 36.558 0.274 C 28.958 -1.241 21.569 3.689 20.054 11.285 C 19.443 14.347 19.871 17.524 21.271 20.315 L 1.111 40.283 C -0.347 41.708 -0.374 44.045 1.052 45.502 C 1.072 45.522 1.091 45.541 1.111 45.561 L 2.44 46.89 C 3.866 48.347 6.203 48.373 7.661 46.948 C 7.682 46.929 7.701 46.909 7.72 46.89 L 27.881 26.774 C 34.895 30.115 43.29 27.139 46.632 20.127 C 47.923 17.418 48.314 14.367 47.746 11.42 Z"
    style="fill: none; fill-rule: nonzero; stroke: black;" />
</svg>